<svg>
 <symbol id='star-icon' xmlns="http://www.w3.org/2000/svg" fill="none" viewBox="0 0 16 16">
                <g clip-path="url(#a)">
                        <path fill="#E9B653"
                                d="M8.296 13.48l3.963 2.085a.635.635 0 00.92-.668l-.757-4.413a.635.635 0 01.183-.56l3.205-3.126a.633.633 0 00-.35-1.08l-4.429-.643a.628.628 0 01-.476-.345L8.57.715a.634.634 0 00-1.137 0L5.45 4.732a.632.632 0 01-.477.345l-4.43.644A.633.633 0 00.195 6.8L3.4 9.924c.15.144.217.356.183.561l-.757 4.412a.635.635 0 00.92.669l3.962-2.084a.62.62 0 01.588-.002z" />
                </g>
                <defs>
                        <clipPath id="a">
                                <path fill="#fff" d="M0 0h16v16H0z" />
                        </clipPath>
                </defs>
        </symbol>
</svg>
